<svg xmlns="http://www.w3.org/2000/svg" width="222" height="65" viewBox="0 0 222 65" fill="none">
    <path d="M32.1069 64.1161C43.0992 64.1161 52.7972 58.6063 58.5849 50.2087C61.9095 58.76 70.5097 64.1161 81.8964 64.1161C90.1 64.1161 97.0196 61.5022 101.465 57.2043L100.825 62.789H114.715L118.04 33.8716L125.759 62.789H139.663L147.382 33.8716L150.704 62.789H164.595L163.107 49.8433C168.863 58.446 178.683 64.1161 189.833 64.1161C207.565 64.1161 221.94 49.7837 221.94 32.104C221.94 14.4245 207.561 0.0919027 189.829 0.0919027C176.072 0.0919027 164.339 8.72222 159.77 20.8449L157.525 1.32511H142.175L132.706 36.7975L123.238 1.32511H107.888L105.731 20.0797C105.47 14.6232 103.223 9.67973 99.3475 6.09979C95.0283 2.10949 88.994 0 81.8944 0C75.2427 0 69.5109 1.88935 65.3179 5.465C62.2268 8.10243 60.2034 11.5071 59.4209 15.2836C53.7638 6.16604 43.6503 0.0919027 32.1069 0.0919027C14.375 0.0919027 0 14.4245 0 32.104C0 49.7837 14.375 64.1161 32.1069 64.1161ZM189.829 14.4971C199.583 14.4971 207.488 22.3794 207.488 32.104C207.488 41.8288 199.583 49.711 189.829 49.711C180.076 49.711 172.17 41.8288 172.17 32.104C172.17 22.3794 180.076 14.4971 189.829 14.4971ZM81.8964 13.4178C87.9242 13.4178 91.624 16.2005 91.7913 20.8619L91.8426 22.279H105.48L104.074 34.5213C103.375 33.3992 102.546 32.3626 101.579 31.4201C98.3981 28.3253 93.7337 26.2179 87.7121 25.1579L79.5944 23.7088C74.2161 22.7427 73.1142 21.0671 73.1142 18.8486C73.1142 18.2929 73.3608 13.4157 81.8964 13.4157V13.4178ZM76.068 37.1651L85.6328 38.954C91.8085 40.1359 92.6404 42.6343 92.6404 44.9232C92.6404 48.5376 88.5226 50.7816 81.8923 50.7816C74.0188 50.7816 71.0435 46.3531 70.8869 42.5616L70.829 41.1531H62.902C63.7487 38.2829 64.2119 35.248 64.2119 32.104C64.2119 31.9544 64.2033 31.8048 64.2012 31.6552C67.0519 34.3546 71.0329 36.2375 76.066 37.1651H76.068ZM32.1069 14.4971C41.8604 14.4971 49.766 22.3794 49.766 32.104C49.766 41.8288 41.8604 49.711 32.1069 49.711C22.3535 49.711 14.4479 41.8288 14.4479 32.104C14.4479 22.3794 22.3535 14.4971 32.1069 14.4971Z" fill="#F4F4F4"/>
    <script xmlns=""/></svg>